<svg width="20" height="37" viewBox="0 0 20 37" fill="none" xmlns="http://www.w3.org/2000/svg">
<path d="M7.56757 36.31L9.0991 10.5292C9.0991 10.0337 9.5045 9.70335 9.92492 9.70335H10.0901C10.5856 9.70335 10.9159 10.1088 10.9159 10.5292L12.4324 36.31H20L18.5285 3.23188V0.273926H1.47147V3.23188L0 36.31H7.56757ZM11.4715 1.09975H17.7027V2.24089H11.4715V1.09975ZM10 3.80245C10.3303 3.80245 10.4955 4.04269 10.4955 4.29795C10.4955 4.53819 10.3303 4.79344 10 4.79344C9.75976 4.79344 9.5045 4.5532 9.5045 4.29795C9.5045 3.96762 9.75976 3.80245 10 3.80245ZM10 5.93459C10.3303 5.93459 10.4955 6.17483 10.4955 6.43008C10.4955 6.68534 10.3303 6.92558 10 6.92558C9.75976 6.92558 9.5045 6.68534 9.5045 6.43008C9.5045 6.09975 9.75976 5.93459 10 5.93459ZM2.2973 1.09975H8.6036V2.24089H2.2973V1.09975Z" fill="white"/>
</svg>
